<mxfile host="app.diagrams.net" modified="2021-12-05T16:26:10.464Z" agent="5.0 (Windows NT 10.0; Win64; x64) AppleWebKit/537.36 (KHTML, like Gecko) Chrome/96.0.4664.45 Safari/537.36" etag="Wa5AkKvwsJh9f2oni95f" version="15.8.9" type="github">
  <diagram id="jVNh621GtxdNsy_mdJ2N" name="Page-1">
    <mxGraphModel dx="1038" dy="583" grid="1" gridSize="10" guides="1" tooltips="1" connect="1" arrows="1" fold="1" page="1" pageScale="1" pageWidth="827" pageHeight="1169" math="0" shadow="0">
      <root>
        <mxCell id="0" />
        <mxCell id="1" parent="0" />
        <mxCell id="PWjywUqZBP5ES502_3S3-1" value="NodeMaestro" style="shape=umlLifeline;perimeter=lifelinePerimeter;whiteSpace=wrap;html=1;container=1;collapsible=0;recursiveResize=0;outlineConnect=0;" vertex="1" parent="1">
          <mxGeometry x="110" y="100" width="180" height="350" as="geometry" />
        </mxCell>
        <mxCell id="PWjywUqZBP5ES502_3S3-2" value="" style="rounded=0;whiteSpace=wrap;html=1;" vertex="1" parent="PWjywUqZBP5ES502_3S3-1">
          <mxGeometry x="75" y="70" width="30" height="280" as="geometry" />
        </mxCell>
        <mxCell id="PWjywUqZBP5ES502_3S3-3" value="new ()" style="text;html=1;strokeColor=none;fillColor=none;align=center;verticalAlign=middle;whiteSpace=wrap;rounded=0;" vertex="1" parent="1">
          <mxGeometry x="280" y="160" width="150" height="30" as="geometry" />
        </mxCell>
        <mxCell id="PWjywUqZBP5ES502_3S3-4" value="&lt;pre style=&quot;background-color: #ffffff ; color: #080808 ; font-family: &amp;#34;jetbrains mono&amp;#34; , monospace ; font-size: 9 8pt&quot;&gt;readInputDataFromFile&lt;span style=&quot;color: #871094 ; font-style: italic&quot;&gt;()&lt;/span&gt;&lt;/pre&gt;" style="text;html=1;strokeColor=none;fillColor=none;align=center;verticalAlign=middle;whiteSpace=wrap;rounded=0;" vertex="1" parent="1">
          <mxGeometry x="580" y="220" width="90" height="30" as="geometry" />
        </mxCell>
        <mxCell id="PWjywUqZBP5ES502_3S3-5" value="&amp;nbsp;NodeActor" style="shape=umlLifeline;perimeter=lifelinePerimeter;whiteSpace=wrap;html=1;container=1;collapsible=0;recursiveResize=0;outlineConnect=0;" vertex="1" parent="1">
          <mxGeometry x="450" y="95" width="130" height="360" as="geometry" />
        </mxCell>
        <mxCell id="PWjywUqZBP5ES502_3S3-6" value="" style="rounded=0;whiteSpace=wrap;html=1;" vertex="1" parent="PWjywUqZBP5ES502_3S3-5">
          <mxGeometry x="52.5" y="65" width="25" height="295" as="geometry" />
        </mxCell>
        <mxCell id="PWjywUqZBP5ES502_3S3-7" value="" style="edgeStyle=orthogonalEdgeStyle;html=1;verticalAlign=bottom;endArrow=open;endSize=8;strokeColor=#000000;rounded=0;exitX=1.1;exitY=0.305;exitDx=0;exitDy=0;exitPerimeter=0;entryX=1.1;entryY=0.407;entryDx=0;entryDy=0;entryPerimeter=0;" edge="1" parent="PWjywUqZBP5ES502_3S3-5" source="PWjywUqZBP5ES502_3S3-6" target="PWjywUqZBP5ES502_3S3-6">
          <mxGeometry relative="1" as="geometry">
            <mxPoint x="130" y="185" as="targetPoint" />
            <mxPoint x="130" y="155" as="sourcePoint" />
            <Array as="points">
              <mxPoint x="160" y="155" />
              <mxPoint x="160" y="185" />
            </Array>
          </mxGeometry>
        </mxCell>
        <mxCell id="PWjywUqZBP5ES502_3S3-8" value="&lt;pre style=&quot;background-color: #ffffff ; color: #080808 ; font-family: &amp;#34;jetbrains mono&amp;#34; , monospace ; font-size: 9 8pt&quot;&gt;tell&lt;span style=&quot;color: #871094 ; font-style: italic&quot;&gt;(&lt;/span&gt;&lt;span style=&quot;color: #000000&quot;&gt;DataBasicActor&lt;/span&gt;.&lt;span style=&quot;color: #000000&quot;&gt;Receive&lt;/span&gt;.&lt;span style=&quot;color: #871094 ; font-style: italic&quot;&gt;INSTANCE)&lt;/span&gt;&lt;/pre&gt;" style="text;html=1;strokeColor=none;fillColor=none;align=center;verticalAlign=middle;whiteSpace=wrap;rounded=0;" vertex="1" parent="1">
          <mxGeometry x="290" y="310" width="150" height="30" as="geometry" />
        </mxCell>
        <mxCell id="PWjywUqZBP5ES502_3S3-9" value="&lt;pre style=&quot;background-color: #ffffff ; color: #080808 ; font-family: &amp;quot;jetbrains mono&amp;quot; , monospace ; font-size: 9 8pt&quot;&gt;ReceiveData&lt;span style=&quot;color: #871094 ; font-style: italic&quot;&gt;(&lt;/span&gt;&lt;span style=&quot;color: #0033b3&quot;&gt;this&lt;/span&gt;.&lt;span style=&quot;color: #871094&quot;&gt;features&lt;/span&gt;&lt;span style=&quot;color: #871094 ; font-style: italic&quot;&gt;)&lt;/span&gt;&lt;/pre&gt;" style="text;whiteSpace=wrap;html=1;" vertex="1" parent="1">
          <mxGeometry x="250" y="360" width="210" height="50" as="geometry" />
        </mxCell>
        <mxCell id="PWjywUqZBP5ES502_3S3-10" value="" style="edgeStyle=orthogonalEdgeStyle;html=1;verticalAlign=bottom;endArrow=open;endSize=8;strokeColor=#000000;rounded=0;exitX=1.073;exitY=0.107;exitDx=0;exitDy=0;exitPerimeter=0;entryX=-0.052;entryY=0.138;entryDx=0;entryDy=0;entryPerimeter=0;" edge="1" parent="1" source="PWjywUqZBP5ES502_3S3-2" target="PWjywUqZBP5ES502_3S3-6">
          <mxGeometry relative="1" as="geometry">
            <mxPoint x="400" y="200" as="targetPoint" />
            <mxPoint x="260" y="220" as="sourcePoint" />
            <Array as="points" />
          </mxGeometry>
        </mxCell>
        <mxCell id="PWjywUqZBP5ES502_3S3-11" value="" style="edgeStyle=orthogonalEdgeStyle;html=1;verticalAlign=bottom;endArrow=open;endSize=8;strokeColor=#000000;rounded=0;exitX=1.073;exitY=0.107;exitDx=0;exitDy=0;exitPerimeter=0;" edge="1" parent="1">
          <mxGeometry relative="1" as="geometry">
            <mxPoint x="500" y="349" as="targetPoint" />
            <mxPoint x="213" y="349.26" as="sourcePoint" />
            <Array as="points">
              <mxPoint x="360" y="349" />
            </Array>
          </mxGeometry>
        </mxCell>
        <mxCell id="PWjywUqZBP5ES502_3S3-12" value="" style="edgeStyle=orthogonalEdgeStyle;html=1;verticalAlign=bottom;endArrow=open;endSize=8;strokeColor=#000000;rounded=0;entryX=0.833;entryY=0.857;entryDx=0;entryDy=0;entryPerimeter=0;" edge="1" parent="1" target="PWjywUqZBP5ES502_3S3-2">
          <mxGeometry relative="1" as="geometry">
            <mxPoint x="508.5" y="410" as="targetPoint" />
            <mxPoint x="500" y="410" as="sourcePoint" />
            <Array as="points" />
          </mxGeometry>
        </mxCell>
      </root>
    </mxGraphModel>
  </diagram>
</mxfile>
